/* XPM */
static char *_182a843f6a8451bc41d7910366e991cwKwvnfsizz1ERS5n[] = {
/* columns rows colors chars-per-pixel */
"75 75 172 2 ",
"   c #26280C",
".  c #27290C",
"X  c #27290D",
"o  c #25270B",
"O  c #24260A",
"+  c #232509",
"@  c #242609",
"#  c #26280A",
"$  c #282A0D",
"%  c #282A0E",
"&  c #292B0E",
"*  c #292B0F",
"=  c #2A2C0F",
"-  c #2A2B0F",
";  c #292A0E",
":  c #28290E",
">  c #25260D",
",  c #23240D",
"<  c #22230C",
"1  c #21230C",
"2  c #21220C",
"3  c #20220C",
"4  c #20210B",
"5  c #1F210B",
"6  c #1F200B",
"7  c #1F200A",
"8  c #1D1F08",
"9  c #1C1D07",
"0  c #1A1B06",
"q  c #1B1C07",
"w  c #1E1F0A",
"e  c #21220E",
"r  c #242610",
"t  c #262812",
"y  c #272913",
"u  c #272813",
"i  c #252611",
"p  c #22230F",
"a  c #20210D",
"s  c #1E1F0B",
"d  c #1D1E0A",
"f  c #1D1F0A",
"g  c #1C1E0A",
"h  c #1C1D0A",
"j  c #1C1D09",
"k  c #1A1C07",
"l  c #181A05",
"z  c #181A04",
"x  c #26280B",
"c  c #27280E",
"v  c #25260E",
"b  c #24250D",
"n  c #23250D",
"m  c #22230D",
"M  c #21220B",
"N  c #1F2109",
"B  c #1E2008",
"V  c #1C1E07",
"C  c #1D1E08",
"Z  c #23250E",
"A  c #252710",
"S  c #272912",
"D  c #282A13",
"F  c #262811",
"G  c #242510",
"H  c #22230E",
"J  c #20210C",
"K  c #20220B",
"L  c #1B1C06",
"P  c #1A1C04",
"I  c #2A2C10",
"U  c #25270A",
"Y  c #2B2D10",
"T  c #2B2C10",
"R  c #2A2B10",
"E  c #292B10",
"W  c #282A0F",
"Q  c #27290F",
"!  c #27280F",
"~  c #26280F",
"^  c #26280E",
"/  c #25270D",
"(  c #24260B",
")  c #222409",
"_  c #212309",
"`  c #22230A",
"'  c #272910",
"]  c #292A11",
"[  c #292B11",
"{  c #2A2C12",
"}  c #292B12",
"|  c #292A12",
" . c #26270F",
".. c #25270E",
"X. c #26270E",
"o. c #24250C",
"O. c #1F2107",
"+. c #1E2006",
"@. c #2C2E11",
"#. c #2B2D11",
"$. c #2A2C11",
"%. c #2B2D12",
"&. c #26270C",
"*. c #232408",
"=. c #212307",
"-. c #2B2E11",
";. c #27290B",
":. c #292C0F",
">. c #2C2D11",
",. c #222407",
"<. c #2B2D0F",
"1. c #292B0D",
"2. c #232507",
"3. c #292B0C",
"4. c #232508",
"5. c #282A0C",
"6. c #2D2F12",
"7. c #27290A",
"8. c #2A2C0E",
"9. c #262809",
"0. c #252709",
"q. c #282A0B",
"w. c #212306",
"e. c #242608",
"r. c #222408",
"t. c #2C2E12",
"y. c #2C2E10",
"u. c #2A2C0D",
"i. c #252708",
"p. c #25270C",
"a. c #242607",
"s. c #2D2F13",
"d. c #2E3013",
"f. c #2E3014",
"g. c #2F3115",
"h. c #313316",
"j. c #323417",
"k. c #313317",
"l. c #303216",
"z. c #323418",
"x. c #35371B",
"c. c #37391D",
"v. c #36381C",
"b. c #323419",
"n. c #2F3116",
"m. c #34361B",
"M. c #3A3C21",
"N. c #3E4026",
"B. c #3C3D23",
"V. c #35371C",
"C. c #3E3F26",
"Z. c #44452C",
"A. c #404128",
"S. c #37391E",
"D. c #36381D",
"F. c #3F4127",
"G. c #47482F",
"H. c #42442A",
"J. c #44462C",
"K. c #404228",
"L. c #303215",
"P. c #34361A",
"I. c #393B1F",
"U. c #3C3E23",
"Y. c #3A3C20",
"T. c #2F3114",
"R. c #2A2D10",
"E. c #282B0F",
"W. c #26290D",
"Q. c #282B0E",
"!. c #272A0E",
"~. c white",
/* pixels */
"          . . X . .       o O + @ # . $ % % & & * * = - ; : > , < 1 2 3 4 5 6 6 6 6 7 8 9 0 q w e r t y u i p a s d f f f f f w w w f d g g h j k l z ",
"X X X X $ $ $ % $ $ $ X X   o @ @ x $ % * * = = = = = = - ; c v b n , , m 1 1 2 < < M N B V C 4 Z A S D y F G H 2 J 5 5 5 4 K K K 4 4 5 5 5 6 w C L P ",
"= = = = = = I I I = = = * %   O U $ = I Y Y Y Y Y Y Y Y Y T R E W Q Q Q ! ~ ~ ^ ^ ^ / ( ) _ ` > ' ] [ { } | ' !  .....................X.....> o.` O.+.",
"@.@.@.@.@.@.@.@.@.@.@.@.Y * X U U & Y @.@.@.@.@.@.@.@.@.@.@.@.@.#.#.#.$.$.$.$.I I I * . x U o W $.#.#.#.%.%.$.$.I R R R R R R E E E I I I R R ; &.*.=.",
"@.@.@.@.@.@.@.@.@.@.@.@.Y * X U U & Y @.@.@.@.@.@.@.@.@.@.@.@.@.@.@.@.-.-.@.@.@.@.-.= $ ;.x . :.-.@.@.@.@.@.#.#.>.#.#.#.#.>.#.#.#.#.#.@.>.>.Y - . @ ,.",
"@.@.@.@.@.@.@.@.@.@.@.@.Y * X U U & Y @.@.@.@.@.@.@.@.@.@.@.@.@.@.@.@.@.@.@.@.@.@.@.<.1.;.x . = @.@.@.@.@.@.@.@.@.@.@.@.@.@.@.@.@.@.@.@.@.@.Y = . @ 2.",
"@.@.@.@.@.@.@.@.@.@.@.@.Y * X U U & Y @.@.@.@.@.@.@.@.@.@.@.@.@.@.@.@.@.@.@.@.@.@.@.<.1.;.x . = @.@.@.@.@.@.@.@.@.@.@.@.@.@.@.@.@.@.@.@.@.@.Y = . @ 2.",
"@.@.@.@.@.@.@.@.@.@.@.@.Y * X U U & Y @.@.@.@.@.@.@.@.@.@.@.@.@.@.@.@.@.@.@.@.@.@.@.<.3.;.x . = @.@.@.@.@.@.@.@.@.@.@.@.@.@.@.@.@.@.@.@.@.@.Y & . @ 4.",
"@.@.@.@.@.@.@.@.@.@.@.@.Y * X U U & Y @.@.@.@.@.@.@.@.@.@.@.@.@.@.@.@.@.@.@.@.@.@.@.<.5.;.;.$ = @.@.@.@.@.@.@.@.@.@.@.@.@.@.@.@.@.@.@.@.@.@.Y & . @ 4.",
"@.@.@.@.@.@.@.@.@.@.@.@.Y * X U U & Y @.@.@.@.@.@.@.@.@.@.@.@.@.@.@.@.@.@.@.@.@.@.@.= 5.;.;.$ = @.@.@.@.@.@.@.@.@.@.@.@.@.@.@.@.@.@.@.@.@.@.Y & . @ 4.",
"@.@.@.@.@.@.@.@.@.@.@.@.#.* X # # & @.@.@.@.@.@.@.@.@.@.@.@.@.@.@.@.@.@.@.@.@.@.@.@.<.5.;.. $ Y @.@.@.@.@.@.@.@.@.@.@.@.@.@.@.@.@.@.@.@.@.@.Y = . @ 4.",
"@.@.@.@.@.@.@.@.@.@.@.6.@.= 5.# 7.8.@.6.6.@.@.@.@.@.@.@.@.@.@.@.@.@.@.@.@.@.@.@.@.@.= 5.;.. $ = @.@.@.@.@.@.@.@.@.@.@.@.@.@.@.@.@.@.@.@.@.@.Y & . @ 4.",
"I I I = = = = = I I Y Y = 1.;.9.7.1.Y Y Y Y = = = = = = = = = = = = = = = = = = I = & ;.# x . & I Y = = = = = Y Y Y Y = = = = = = = = = = = & X o 4.,.",
"% % $ $ $ $ $ $ $ % % & $ ;.# 0.9.q.1.& & % $ $ $ $ $ $ $ $ $ $ $ $ $ $ $ X X X X X   @ @ @ U . % $ $ $ $ $ $ $ & & $ $ X X . . . . . . . x x O + ,.w.",
"x x x x x x x x     . . ;.# # 0.9.;.. . . .   x       x x x x x x                   o @ @ @ O x       x   x   . . . x x o o x x x x x x x U U O + 4.,.",
"4.4.@ @ U U U U O o o x x ;.# # # ;.;.x x o o o o o o o U @ 4.@ U o o o x x x       x U U U U o o o o x x x o o o U @ e.@ U U x x x     x x x   x o U ",
",.r.4.@ U x x o o o x ;.5.5.5.5.5.5.5..               x U @ 4.4.o       . . X X X X X . . .           . . .     x U e.e.@ U x . X X X X $ $ $ % % $ $ ",
"r.+ U . $ * & & & & & = = Y Y Y Y Y Y = = = = = = = = & 5.x 0.0.X * = = = = = = = = = = = = = = = = = = = = = = = $ 9.0.;.$ & = = = = = = = I I I Y Y ",
"+ O   % I #.#.Y Y Y Y @.@.6.6.6.6.6.6.@.@.@.@.@.@.@.@.Y 8.5.# x & #.@.@.@.@.@.@.@.@.@.@.@.@.@.@.@.@.@.@.@.@.@.@.@.8.7.# 5.= Y @.@.@.@.@.@.@.@.@.@.@.@.",
"+ O . & I @.@.@.@.@.@.@.@.t.6.6.6.6.6.@.@.@.@.@.@.@.@.Y 8.5.# x = @.@.@.@.@.@.@.@.@.@.@.@.@.@.@.@.@.@.@.@.@.@.@.@.8.7.9.5.& Y @.@.@.@.@.@.@.@.@.@.@.@.",
"@ U . & Y @.@.@.@.@.@.@.@.@.@.@.@.@.@.@.@.@.@.@.@.@.@.Y 8.5.x x = @.@.@.@.@.@.@.@.@.@.@.@.@.@.@.@.@.@.@.@.@.@.@.y.u.# 9.. & Y @.@.@.@.@.@.@.@.@.@.@.@.",
"@ U ;.& Y @.@.@.@.@.@.@.@.@.@.@.@.@.@.@.@.@.@.@.@.@.@.Y 8.5.x x = @.@.@.@.@.@.@.@.@.@.@.@.@.@.@.@.@.@.@.@.@.@.@.y.1.9.9.;.& Y @.@.@.@.@.@.@.@.@.@.@.@.",
"@ U . & Y @.@.@.@.@.@.@.@.@.@.@.@.@.@.@.@.@.@.@.@.@.@.Y 8.5.x x = @.@.@.@.@.@.@.@.@.@.@.@.@.@.@.@.@.@.@.@.@.@.@.Y 1.9.9.. & Y @.@.@.@.@.@.@.@.@.@.@.@.",
"@ U . & Y @.@.@.@.@.@.@.@.@.@.@.@.@.@.@.@.@.@.@.@.@.@.Y 8.5.x x = @.@.@.@.@.@.@.@.@.@.@.@.@.@.@.@.@.@.@.@.@.@.@.Y 1.9.0.5.= Y @.@.@.@.@.@.@.@.@.@.@.@.",
"@ U . & Y @.@.@.@.@.@.@.@.@.@.@.@.@.@.@.@.@.@.@.@.@.@.Y 8.5.x x = @.@.@.@.@.@.@.@.@.@.@.@.@.@.@.@.@.@.@.@.@.@.@.Y 1.0.U $ = Y @.@.@.@.@.@.@.@.@.@.@.@.",
"@ U . & Y @.@.@.@.@.@.@.@.@.@.@.@.@.@.@.@.@.@.@.@.@.@.Y 8.5.# x = @.@.@.@.@.@.@.@.@.@.@.@.@.@.@.@.@.@.@.@.@.@.@.Y 1.# U $ = #.@.@.@.@.@.@.@.@.@.@.@.@.",
"@ U . & Y @.@.@.@.@.@.@.@.@.@.@.@.@.@.@.@.@.@.@.@.@.@.Y 8.5.# x 8.@.@.@.@.@.@.@.@.@.@.@.@.@.@.@.@.@.@.@.@.@.@.@.Y 1.9.9.. * Y @.@.@.@.@.@.@.@.@.@.@.@.",
"4.@ U . & = = = = = = = = = = = = = = = = = = = = = = & $ ;.0.0.$ = = = = = = = = = = = = = = = = = = = = = * * & 5.0.0.x X * = = = = = = = = = = = * ",
",.4.@ U   X X . . . . .                 x       x       x U 4.4.U x x x . . $ $ $ X X .                     x x x # i.e.0.o   X X . .     x x x x x x ",
"r.4.4.@ U o o U U U U U ( ( O O O O O O O O O O O O O U U @ 4.4.@ O O @ U U x x x x o O @ @ @ O O o o o o O O O U U 0.e.@ O o o o U U O U U U U @ + + ",
"+ + @ O O O O @ + + O O O O @ 4.2.,.4.4.+ O O O O O O O O O + + O O @ + + @ @ U o o O + r.,.4.+ @ O o o o o ( o o o o U U O O O O @ @ @ O U U @ 4.,.,.",
"o o o o o o o U O U o o o o O 2.,.4.+ O U o o o o o o o o o o o o o o U O U U x     U 4.,.4.@ U x             X X X X X       o o o U x x   x U + ,.w.",
"& & & & & & % % % % % & % %   @ 4.U . $ % & & & & & & & & & & & & & % % $ $ & = = & . @ @ o . % & = = = = = = = = = I = * & * * W % & & = = % . U 4.,.",
"Y Y Y Y Y Y Y Y Y Y Y Y Y = X O @ X = Y Y Y Y Y Y Y Y Y Y Y Y Y Y Y Y Y Y Y @.@.@.Y & U U . * Y @.@.@.@.@.@.@.@.@.@.@.@.Y Y #.#.#.#.@.@.@.@.I % o @ 4.",
"@.@.@.@.@.@.@.@.@.@.@.@.#.I % O O $ Y @.@.@.@.@.@.@.@.@.@.@.@.@.@.@.@.@.@.@.@.@.@.Y & # U . & Y @.@.@.@.@.@.@.@.@.@.@.@.@.@.@.@.@.@.@.@.@.@.I % x O + ",
"@.@.@.@.@.@.@.@.@.@.@.@.@.Y % o U $ Y @.@.@.@.@.@.@.@.@.@.@.@.@.@.@.@.@.@.@.@.@.@.Y & # # . & Y @.@.@.@.@.@.@.@.@.@.@.@.@.@.@.@.@.@.@.@.@.@.I % o O + ",
"@.@.@.@.@.@.@.@.@.@.@.@.@.Y & o U $ Y @.@.@.@.@.@.@.@.@.@.@.@.@.@.@.@.@.@.@.@.@.@.Y & # U . % Y @.@.@.@.@.@.@.@.@.@.@.@.@.@.@.@.@.@.@.@.@.@.I % o @ 4.",
"@.@.@.@.@.@.@.@.@.@.@.@.@.Y & x U $ = Y @.@.@.@.@.@.@.@.@.@.@.@.@.@.@.@.@.@.@.@.@.Y & # U   % I @.@.@.@.@.@.@.@.@.@.@.@.@.@.@.@.@.@.@.@.@.@.I % o @ 4.",
"@.@.@.@.@.@.@.@.@.@.@.@.@.Y & o U $ I #.@.@.@.@.@.@.@.@.@.@.@.@.@.@.@.@.@.@.@.@.@.Y & # U . % Y @.@.@.@.@.@.@.@.@.@.@.@.@.@.@.@.@.@.@.@.@.@.I % o @ 4.",
"@.@.@.@.@.@.@.@.@.@.@.@.@.Y & o O $ I #.@.@.@.@.@.@.@.@.@.@.@.@.@.@.@.@.@.@.@.@.@.Y & # # . & Y @.@.@.@.@.@.@.@.@.@.@.@.@.@.@.@.@.@.@.@.@.@.I % x @ 4.",
"@.@.@.@.@.@.@.@.@.@.@.@.@.Y & o U $ I @.@.@.@.@.@.@.@.@.@.@.@.@.@.@.@.@.@.@.@.@.@.#.& # # . & Y @.@.@.@.@.@.@.@.@.@.@.@.@.@.@.@.@.@.@.@.@.@.I % x @ 4.",
"@.@.@.@.@.@.@.@.@.@.@.@.@.Y & x U $ = Y @.@.@.@.@.@.@.@.@.@.@.@.@.@.@.@.@.@.@.@.@.#.& # # . & Y @.@.@.@.@.@.@.@.@.@.@.@.@.@.@.@.@.@.@.@.@.@.Y % x @ 4.",
"I I I = = = = = = = = = = = $ U @ x % * = = = = = = = = = = = = = = = = = = = = = * X U 0.# . & = I = = = = = = = I I Y Y Y Y Y Y Y Y Y Y Y = $ x 4.,.",
"% % $ $ $ X X X X X X X X . x 4.4.O o   X X X X           . . . X X X X X X X X X   o e.4.e.U   X X X $ $ $ $ $ X X % % & & & & & & & & & & % . U ,.w.",
"x x x x x x   p.o o x x x x U @ + @ o o       x o o o o o U U U o o o p.        o o U @ e.@ @ o x x x x x x x x o o o x   . . . . . . . . X   o @ r.=.",
"e.e.@ @ U x o o o U o x x x x x x x x     x x x x       o @ 4.4.@ U o o o x x x x x x x x x x x x o U U U U U U O @ 4.4.@ O U o o o o o o o o O O + + ",
"a.e.e.@ x . .     x . . . X X $ $ $ $ $ X X . 5.$ $ % X x U 4.4.U x     . . . . . X X $ $ $ $ . . . x x x x x x U @ ,.,.+ O o x x x x x x x x x x x x ",
"0.0.U x $ = = = = = = = = = = = = = = = = = = = = Y I = 1.;.0.0.$ = = = = = = = = = = = I = = = = = = = = = = & $ # 4.4.x X & * * * * * * * * * * * * ",
"# # x $ = @.@.@.@.@.@.@.@.@.@.@.@.@.@.@.@.@.@.@.@.@.@.Y = 5.# # 8.@.@.@.@.@.@.@.@.@.@.@.@.@.@.@.@.@.@.@.@.@.@.Y & . e.@ . = Y @.@.@.@.@.@.@.@.@.@.@.@.",
"# # ;.$ = @.@.@.@.@.@.@.@.@.@.@.@.@.@.@.@.@.@.@.@.@.@.Y = $ # x 8.@.@.@.@.@.@.@.@.@.@.@.@.@.@.@.@.@.@.@.@.@.@.Y *   @ @ . = Y @.@.@.@.@.@.@.@.@.@.@.@.",
"# # x $ = @.@.@.@.@.@.@.@.@.@.@.@.@.@.@.@.@.@.@.@.@.@.Y = $ # # 8.@.@.@.@.@.@.@.@.@.@.@.@.@.@.@.@.@.@.@.@.@.@.Y &   @ @ . = Y @.@.@.@.@.@.@.@.@.@.@.@.",
"0.# x $ = @.@.@.@.@.@.@.@.@.@.@.@.@.@.@.@.@.@.@.@.@.@.Y = $ # # 8.@.@.@.@.@.@.@.@.@.@.@.@.@.@.@.@.@.@.@.@.@.@.Y %   @ 0.. * Y @.@.@.@.@.@.@.@.@.@.@.@.",
"0.U x $ = @.@.@.@.@.@.@.@.@.@.@.@.@.@.@.@.@.@.@.@.@.@.Y = $ # # 8.@.@.@.@.@.@.@.@.@.@.@.@.@.@.@.@.@.@.@.@.@.@.Y & . i.0.. * Y @.@.@.@.@.@.@.@.@.@.@.@.",
"@ U x $ = @.@.@.@.@.@.@.@.@.@.@.@.@.@.@.@.@.@.@.@.@.@.Y = $ # # 8.@.@.@.@.@.@.@.@.@.@.@.@.@.@.@.@.@.@.@.@.@.@.Y & . 0.0.. & Y @.@.@.@.@.@.@.@.@.@.@.@.",
"+ O x $ <.@.@.@.@.@.@.@.@.@.@.@.@.@.@.@.@.@.@.@.@.@.@.Y = $ # # 8.@.@.@.@.@.@.@.@.@.@.@.@.@.@.@.@.@.@.@.@.@.@.Y & . 9.9.. & Y @.@.@.@.@.@.@.@.@.@.@.@.",
"+ O   % I @.@.@.@.@.@.@.@.@.@.@.@.@.@.@.@.@.@.@.@.@.@.Y = $ # x 8.@.6.6.6.s.d.d.d.d.6.t.@.@.@.@.@.@.@.@.@.@.@.Y = 5.9.9.. & Y @.@.@.@.@.@.@.@.@.@.@.@.",
"+ O   $ = Y Y Y @.@.@.@.@.@.@.@.@.@.@.@.@.@.@.@.@.@.@.Y = 5.U # & @.6.6.f.g.h.j.k.l.f.s.t.@.@.@.@.@.@.@.@.@.@.Y * 5.9.9.;.& Y @.@.@.@.@.@.@.@.@.@.@.@.",
"r.+ O   X & & & & = = = = = = = = = = = = = = I I I = = 1.;.@ U $ Y #.6.g.z.x.c.v.b.g.t.#.I = = = = = = = = = & % x 0.@ x X & = = = = = = = = = = I I ",
"=.r.4.@ U U x x x x x x     . . . .       . X $ % % $ 5.;.# 4.4.x $ * #.n.m.M.N.B.V.l.%.* % X . . . . .     x x o O 4.4.O o   . .       X $ $ $ $ X X ",
"4.+ @ @ U U U U U U U U o o o U U U o U U x x       x x # 0.4.+ U . $ I n.V.C.Z.A.S.l.I X x o o x x x o o o o o o O + + O U o x o o o o x x x x o U O ",
"x x x . . . x x x x       o O + 4.O o x x x x o o U U U U U O O U x X E g.D.F.G.H.S.g.& U @ @ O o o x x             x x x x x x x o o o o o o O + r.,.",
"& & & & & & $ $ $ $ $ % X   o 4.4.U   X $ $ . . x x x             . $ I g.V.N.J.K.D.f.$ @ @ O x   . . $ $ $ % % % % $ $ $ $ . . X X X . .   o O 4.,.w.",
"Y Y Y Y Y Y Y = = = I I = & . @ @ . & = = = = = = = = = = = = = = = I t.L.P.I.U.Y.m.f.$ U x . & = = = = = I I I I I I = = = = = = = = = = = % . U 4.,.",
"@.@.@.@.@.@.@.@.@.@.@.@.@.Y $ U U $ = Y @.@.@.@.@.@.@.@.@.@.@.@.@.@.@.6.L.z.P.P.P.z.s.5.# . & Y @.@.@.@.@.@.@.@.@.@.@.@.@.@.@.@.@.@.@.@.@.@.Y & x @ 4.",
"@.@.@.@.@.@.@.@.@.@.@.@.@.Y & x U $ = @.@.@.@.@.@.@.@.@.@.@.@.@.@.@.@.6.d.g.L.l.L.T.Y . x . & Y @.@.@.@.@.@.@.@.@.@.@.@.@.@.@.@.@.@.@.@.@.@.Y & x @ 2.",
"@.@.@.@.@.@.@.@.@.@.@.@.@.Y & x U $ = Y @.@.@.@.@.@.@.@.@.@.@.@.@.@.@.@.6.6.s.s.s.@.= x # . & Y @.@.@.@.@.@.@.@.@.@.@.@.@.@.@.@.@.@.@.@.@.@.Y &   e.2.",
"@.@.@.@.@.@.@.@.@.@.@.@.@.Y & x U $ = Y @.@.@.@.@.@.@.@.@.@.@.@.@.@.@.@.@.@.@.t.@.@.8.;.# . $ Y @.@.@.@.@.@.@.@.@.@.@.@.@.@.@.@.@.@.@.@.@.@.Y &   e.2.",
"@.@.@.@.@.@.@.@.@.@.@.@.@.Y & x U $ = Y @.@.@.@.@.@.@.@.@.@.@.@.@.@.@.@.@.@.@.@.@.@.= ;.# ;.$ = @.@.@.@.@.@.@.@.@.@.@.@.@.@.@.@.@.@.@.@.@.@.Y &   e.2.",
"@.@.@.@.@.@.@.@.@.@.@.@.@.Y & x U $ = Y @.@.@.@.@.@.@.@.@.@.@.@.@.@.@.@.@.@.@.@.@.@.= ;.# ;.$ = @.@.@.@.@.@.@.@.@.@.@.@.@.@.@.@.@.@.@.@.@.@.Y &   e.2.",
"@.@.@.@.@.@.@.@.@.@.@.@.@.Y $ U U $ = Y @.@.@.@.@.@.@.@.@.@.@.@.@.@.@.@.@.@.@.@.@.@.= ;.# x $ = @.@.@.@.@.@.@.@.@.@.@.@.@.@.@.@.@.@.@.@.@.@.Y &   e.2.",
"@.@.@.@.@.@.@.@.@.@.@.@.#.= $ U U $ = y.@.@.@.@.@.@.@.@.@.@.@.@.@.@.@.@.@.@.@.@.@.@.= ;.# x $ = @.@.@.@.@.@.@.@.@.@.@.@.@.@.@.@.@.@.@.@.@.@.Y &   @ 2.",
"@.@.@.@.@.@.@.@.@.@.@.@.Y = $ U U $ = Y @.@.@.@.@.@.@.@.@.@.@.@.@.@.@.@.@.@.@.@.@.@.= ;.# x . = @.@.@.@.@.@.@.@.@.@.@.@.@.@.@.@.@.@.@.@.@.@.Y &   @ 4.",
"I I I I Y Y Y Y Y Y Y Y R.* X U U . & = Y Y Y Y Y Y = = I I I I I I Y Y Y Y Y Y Y Y & x U U x & Y Y Y @.@.@.@.@.Y Y Y Y Y Y Y Y Y Y Y Y Y Y * $ x @ r.",
"% % % % % & & :.:.= = = :.E.W.U O x X % & & & & & $ $ $ % % % % % % % * * * * * & & . U @ @ U $ = = = Y Y Y Y Y = = = = = = = = = = * * & & $ . U 4.,.",
"X X X X X $ $ Q.Q.* * :.E.!.W.U @ o   X % $ $ $ $ . . . X X X X X X X % % % % % % $ . U @ @ U . & = = Y Y Y Y Y = = & & & & = = * * % % $ $ . x U 4.,."
};
