/* XPM */
static char *bd625cdacd8e41ba9502066c853aad88H6blEw4gfYX8bSOI[] = {
/* columns rows colors chars-per-pixel */
"68 75 105 2 ",
"   c None",
".  c #010000",
"X  c #0B0100",
"o  c #130201",
"O  c #1B0301",
"+  c #220402",
"@  c #2B0503",
"#  c #330604",
"$  c #3D0805",
"%  c #440A06",
"&  c #4B0B06",
"*  c #4D0D08",
"=  c #530D07",
"-  c #560E09",
";  c #590E08",
":  c #5F100A",
">  c #600F09",
",  c #65110B",
"<  c #6C130C",
"1  c #72140D",
"2  c #7D170E",
"3  c #7E180F",
"4  c #7B1810",
"5  c #80170F",
"6  c #82180F",
"7  c #851910",
"8  c #8B1A11",
"9  c #931C13",
"0  c #9B1E14",
"q  c #9F2015",
"w  c #A42116",
"e  c #AB2317",
"r  c #AE2318",
"t  c #B42519",
"y  c #B9261A",
"u  c #BD281B",
"i  c #C4291C",
"p  c #CB2B1E",
"a  c #D22D1F",
"s  c #D72E20",
"d  c #D92F20",
"f  c #D63221",
"g  c #DE3122",
"h  c #E13122",
"j  c #E03122",
"k  c #E23222",
"l  c #E33222",
"z  c #E33223",
"x  c #E43222",
"c  c #E43223",
"v  c #E53223",
"b  c #E63223",
"n  c #E73223",
"m  c #E63323",
"M  c #E73323",
"N  c #E63424",
"B  c #E73424",
"V  c #E73524",
"C  c #E73625",
"Z  c #E83323",
"A  c #EA3424",
"S  c #EB3424",
"D  c #EA3524",
"F  c #E23A25",
"G  c #E73925",
"H  c #E73926",
"J  c #E73A26",
"K  c #E73B26",
"L  c #E63C27",
"P  c #E73D27",
"I  c #E83F28",
"U  c #E74128",
"Y  c #E74629",
"T  c #E84028",
"R  c #EB4028",
"E  c #E84529",
"W  c #E8472A",
"Q  c #E74E2C",
"!  c #EB482B",
"~  c #E84B2B",
"^  c #EB4C2C",
"/  c #E9562F",
"(  c #E9592F",
")  c #E95D31",
"_  c #E96031",
"`  c #E96232",
"'  c #E96633",
"]  c #E96934",
"[  c #EA6934",
"{  c #EA6B35",
"}  c #EA7036",
"|  c #EA7037",
" . c #EA7237",
".. c #EA7337",
"X. c #EA7638",
"o. c #EB7B39",
"O. c #EB7C3A",
"+. c #EC853D",
"@. c #EC863D",
"#. c #EC883E",
"$. c #ED8D40",
"%. c #ED8E40",
"&. c #ED8F40",
"*. c #ED9041",
"=. c #ED9141",
/* pixels */
"                                                                                                                                        ",
"                                                                                                                                        ",
"                                                                                                                                        ",
"                                                                                                                                        ",
"                                                                                                                                        ",
"                                                                                                                                        ",
"                                                                                                                                        ",
"                                                                                                                                        ",
"                                                                                                                                        ",
"                                                                                                                                        ",
"                                                                                                                                        ",
"                                                                                                                                        ",
"                                                                                                                                        ",
"                                                                                                                                        ",
"                                                                                                                                        ",
"                                                                                                                                        ",
"                                                                                                                                        ",
"                                                                                                                                        ",
"                                                                                                                                        ",
"                                                                                                                                        ",
"                                                                                                                                        ",
"                                                                                                                                        ",
"                                                                                                                                        ",
"                                                                                                                                        ",
"                                                                                                                                        ",
"                                                                                                                                        ",
"                                                                                                                                        ",
"                                                                                                                                        ",
"                                              . . X X X . . . . . . . . .                                                               ",
"                                          . . . . . . . . . . . . . . . . . . . . . . . .                                               ",
"                                        . . o + O + + + + O + + + + O O O o o o X o o o X .                                             ",
"                                        . @ 8 u u u u u u u u u u u y w 8 1 1 1 1 1 1 1 % o .                                           ",
"                                      . o 4 g ! ^ I S B S B S B J D g i t w 8 8 8 8 8 8 2 $ X .                                         ",
"                                    . X , p Q o.+.' J B Z Z Z n N g s u y r 9 8 8 8 8 8 6 1 # . .                                       ",
"                                    . % y Y X.&.%.` D c Z c d s s i u y y y e 9 8 8 8 8 8 8 < + .                                       ",
"                                  . + q F { &.&...R Z h s p i u t y y y y t t w 8 8 8 8 8 8 8 = o .                                     ",
"                                . o 4 f ( +.=...E N j p u y y y y y y y y y y t q 9 8 8 8 8 8 5 & X .                                   ",
"                              . X ; p L ..=.&.[ J v a u y y y y y y y y y y y y r 0 8 8 8 8 8 8 1 @ .                                   ",
"                              . . * i D / +.#...I v a y y y y y y y y y y y t y y q 8 6 8 8 8 6 , + .                                   ",
"                                . o 2 s J ` #.o.E v d u y y y y y t y y y y y y y 0 8 8 8 8 8 1 # . .                                   ",
"                                  . @ 8 f I [ O.~ B h i y y y y y y y y y y y y t 9 8 8 8 8 2 # . .                                     ",
"                                    . @ q c I ) E Z v d u y y y y y y y y y y y w 8 8 8 8 3 % X .                                       ",
"                                      X % t c N B Z B d i y y y y y y y y y y t 0 8 8 8 3 * o .                                         ",
"                                      . . * u c Z Z Z v p u y y y y y y y y t e 9 8 8 7 ; O . .                                         ",
"                                        . X , a Z Z Z v s u y y y y y y y y t w 8 8 8 , + . .                                           ",
"                                          . O 5 s B v Z d i y y y y y y y y r 0 8 7 < @ . .                                             ",
"                                            . @ 8 d B c h i y y t y y y y t w 8 8 1 # . .                                               ",
"                                              . @ w c B c s u y y y y y y r 0 8 3 % X .                                                 ",
"                                              . . & t v B h p t y y y y y w 8 5 & o . .                                                 ",
"                                                . X ; i B c s y t y y y r 0 6 ; O . .                                                   ",
"                                                  . X < p c d i y y y t 0 8 > O . .                                                     ",
"                                                    . o 7 s c p y y y e 9 < @ . .                                                       ",
"                                                      . @ 8 f s y y t 0 1 # . .                                                         ",
"                                                      . . # e s i t w 3 $ . .                                                           ",
"                                                        . . & e i t 8 * X .                                                             ",
"                                                          . X - r q = o .                                                               ",
"                                                            . o ; > O .                                                                 ",
"                                                              . X X .                                                                   ",
"                                                                . .                                                                     ",
"                                                                                                                                        ",
"                                                                                                                                        ",
"                                                                                                                                        ",
"                                                                                                                                        ",
"                                                                                                                                        ",
"                                                                                                                                        ",
"                                                                                                                                        ",
"                                                                                                                                        ",
"                                                                                                                                        ",
"                                                                                                                                        ",
"                                                                                                                                        ",
"                                                                                                                                        ",
"                                                                                                                                        ",
"                                                                                                                                        ",
"                                                                                                                                        ",
"                                                                                                                                        "
};
