/* XPM */
static char *c5b187e65ff94f32e9d7f08f8df47ad5bRS7DXtKkPgVscqp[] = {
/* columns rows colors chars-per-pixel */
"75 75 174 2 ",
"   c #070900",
".  c #0B0C01",
"X  c #0D1204",
"o  c #0D1A06",
"O  c #141406",
"+  c #141907",
"@  c #1B1C06",
"#  c #161609",
"$  c #19170C",
"%  c #161909",
"&  c #1B1B0B",
"*  c #1E1C10",
"=  c #201F0F",
"-  c #211F10",
";  c #0F2107",
":  c #1F2107",
">  c #132409",
",  c #1D220B",
"<  c #142A0A",
"1  c #1B2A0D",
"2  c #16330C",
"3  c #1B330D",
"4  c #17380D",
"5  c #1B3C0E",
"6  c #1E2D10",
"7  c #1F3610",
"8  c #1E3C10",
"9  c #212207",
"0  c #23240C",
"q  c #27290E",
"w  c #292A0F",
"e  c #20360E",
"r  c #252312",
"t  c #292615",
"y  c #252B12",
"u  c #2C2C13",
"i  c #2E2B18",
"p  c #302D17",
"a  c #322E1A",
"s  c #233412",
"d  c #2C3317",
"f  c #2B3A17",
"g  c #2E3419",
"h  c #35321C",
"j  c #38341D",
"k  c #3A361E",
"l  c #333B1A",
"z  c #3B391E",
"x  c #3D381F",
"c  c #3E3A1F",
"v  c #3E3920",
"b  c #3E3A20",
"n  c #403B21",
"m  c #413C22",
"M  c #423D22",
"N  c #1C400F",
"B  c #1E4311",
"V  c #224412",
"C  c #284616",
"Z  c #234B13",
"A  c #294D16",
"S  c #2D4218",
"D  c #2C4919",
"F  c #37451D",
"G  c #364C1D",
"H  c #255315",
"J  c #285116",
"K  c #285A17",
"L  c #2B5319",
"P  c #2C5D19",
"I  c #37521E",
"U  c #39561F",
"Y  c #305C1B",
"T  c #2D631A",
"R  c #31651C",
"E  c #326B1C",
"W  c #35731E",
"Q  c #3E4020",
"!  c #3C4B20",
"~  c #3A5420",
"^  c #377620",
"/  c #377920",
"(  c #3B7E23",
")  c #464124",
"_  c #464125",
"`  c #484326",
"'  c #4A4426",
"]  c #4A4527",
"[  c #444C24",
"{  c #4A4C26",
"}  c #4D4728",
"|  c #4E4929",
" . c #534D2B",
".. c #534D2C",
"X. c #544D2C",
"o. c #4D5028",
"O. c #56512D",
"+. c #58522E",
"@. c #59532E",
"#. c #5A542F",
"$. c #5C552F",
"%. c #5B5530",
"&. c #5C5530",
"*. c #5D5630",
"=. c #5E5831",
"-. c #605932",
";. c #615A32",
":. c #625B33",
">. c #635C33",
",. c #645C34",
"<. c #655E35",
"1. c #665F35",
"2. c #7D5634",
"3. c #765D37",
"4. c #7B5C37",
"5. c #775F38",
"6. c #7A5E38",
"7. c #676035",
"8. c #676036",
"9. c #696136",
"0. c #696237",
"q. c #6A6237",
"w. c #6C6438",
"e. c #6D6538",
"r. c #6D6639",
"t. c #6E6639",
"y. c #6F6639",
"u. c #6F6739",
"i. c #6E663A",
"p. c #6E673A",
"a. c #6F683B",
"s. c #736037",
"d. c #72653A",
"f. c #79613A",
"g. c #71693A",
"h. c #70683B",
"j. c #72693B",
"k. c #736B3B",
"l. c #736B3C",
"z. c #AD3F2C",
"x. c #B63F2B",
"c. c #BD3E2B",
"v. c #C53D2B",
"b. c #CB3E2D",
"n. c #D43827",
"m. c #D53929",
"M. c #9D452F",
"N. c #8D4E32",
"B. c #9F4730",
"V. c #944E33",
"C. c #9A4C32",
"Z. c #855635",
"A. c #8B5435",
"S. c #835936",
"D. c #8D5639",
"F. c #835B39",
"G. c #935134",
"H. c #9B5137",
"J. c #9D5138",
"K. c #A3452F",
"L. c #AC432E",
"P. c #A2492F",
"I. c #B4422D",
"U. c #A44730",
"Y. c #AB4631",
"T. c #A44A32",
"R. c #AB4934",
"E. c #B24631",
"W. c #BC4330",
"Q. c #B14834",
"!. c #C4412F",
"~. c #3E8424",
"^. c #3F8825",
"/. c #428C27",
/* pixels */
"0 9 q 9 = @ O . . . .   . . .   . . .         .                               . . . . . . . . . O . O . . . O . . O . . O . O . . O O O . O # @ @ 9 9 ",
"q 0 q q = @ O O O O # # # # O O + + O # # O O # O O . O O O O . O O O O . # O O O O + + # @ # # O O O # O O : O O # # # @ # # @ # @ + + O O O @ @ = 9 ",
"w w w q 9 @ O O $ t u p i i i i i i i i i i t t t - - - r t y t r - - - t - - t y r r r 0 - t & r - r r r y t 0 q t r 0 - - & r 0 = r - @ O O O & 0 q ",
"w w w w = $ O $ t c M ' M ' ' M ' ) | ) M ' M M M n n M b M b M b b b b n M M n M c c k z b x x c c c c c c c c z c z j c j j j h k h a t $ # # & 0 q ",
"d w l w 9 = $ & j O.=.=.1.>.:.:.,.1.,.1.1.;.;.;.:.=.=.*.:.%.=.=.*.%.*.%.%.:.*.*.=.=.%.%.%.=.*.*.$.$.O.@.%.$.@.@.@.@.@.@.+.+.+.+.+.O.+. .b t & # @ 0 0 ",
"u u w w 9 = $ - M 1.k.k.k.k.k.d.l.h.l.a.d.h.h.h.d.d.h.h.h.k.l.a.h.h.h.h.d.d.l.h.a.a.l.l.h.h.h.a.d.d.k.k.k.l.k.a.k.l.a.y.d.d.d.k.k.a.k.9.| h , % @ 0 t ",
"d w u w 9 @ @ - M ,.k.k.k.k.k.k.h.h.l.l.l.a.p.l.h.l.l.h.h.h.l.l.l.l.h.l.l.h.l.l.l.l.l.h.l.h.d.l.k.k.k.k.k.k.k.l.l.l.k.k.k.k.k.k.k.k.h.w...h r # % y q ",
"d w l w q = @ = b :.y.y.y.d.y.d.w.y.d.p.p.d.p.p.d.d.a.h.d.k.d.a.a.d.a.h.h.h.d.h.y.a.a.y.y.k.p.p.k.d.k.d.y.y.y.w.t.t.y.w.y.y.y.d.y.a.a.9. .k t # & 0 q ",
"d u d w y & $ - M =.y.y.w.w.u.u.i.i.w.i.p.d.p.d.y.y.y.y.w.h.p.p.h.y.a.p.p.p.p.p.p.i.i.i.y.y.y.p.a.w.y.y.y.y.y.y.t.t.t.g.t.t.q.g.t.t.t.9. .j r + % 0 q ",
"w u u u 0 & * - b :.w.a.a.t.u.w.p.p.i.w.i.p.d.d.y.y.y.p.w.a.w.y.y.y.y.y.y.y.p.p.p.i.i.i.y.y.y.0.p.y.y.p.y.y.y.y.t.t.t.t.t.t.q.t.t.t.u.t. .j t & % 0 y ",
"d w q w 0 r & , M :.y.w.w.t.u.w.d.p.p.p.0.i.w.i.0.y.p.p.w.h.d.y.y.y.y.y.a.y.a.y.p.d.w.d.y.y.y.d.p.p.p.p.y.p.y.p.u.u.u.u.t.t.g.t.t.t.t.8. .j r # @ r q ",
"u w u u 0 & & * M =.w.y.t.a.t.w.1.1.1.1.1.1.1.;.1.1.1.1.1.1.1.1.0.0.0.0.0.0.0.0.p.0.p.0.p.0.p.p.p.0.y.0.y.0.y.d.t.w.t.t.t.t.t.t.t.t.k.w. .k r # % 0 q ",
"u w w w 0 & & r c 1.t.t.t.t.w.9.;.+...] } } } } ] } } } | } } } | | | ..| ........X.X.O.X.O.O.O.......O.X.X.%.X.O.+.+.:.7.q.t.t.w.a.y.w. .j r $ % 0 u ",
"u l w d y & & r c $.t.t.t.t.t.<.%.m a i t i t t i i t i i i t t t i i i i i i a a h a h a h a h a h a h a a a a h k c } =.t.t.t.y.y.a.w. .k 0 $ & 0 q ",
"u u w w 0 , * , b ,.t.y.t.t.9.$...a - - t t t t t t t t - - - - r r t t r r r t t t r t t r t r r r t r r t r r r t t x  .<.q.t.y.y.d.w. .j r % % 0 q ",
"u w l w 0 & $ r b 1.t.t.u.k.9.$.m i - t v v v v b v b b h b b k h h h a h a a a i i i t t t t t t i t t t p t t t - & p | <.q.g.y.y.d.w. .h r % % 0 q ",
"u u l w w = = = m ;.d.y.y.y.9.*.M i - b ` ....| ....| ..} } | ) ' ) ) ) ) M M M b b b b b b c c b b b b b b a v a t * t ` ;.0.p.y.y.a.w...j - $ % 0 u ",
"w l u w 9 9 = = m ;.y.y.a.y.8.O.M i t M X.*.*.*.=.=.=.=.%.%.%.%.%.%.=.%.*.O.@.O.+.O...O.| O.| O.X.X...| %.X.....} v t t } %.1.p.a.y.d.0...h y % @ 0 0 ",
"w u l w = @ @ = m ;.w.y.y.a.9.%.) i i ) %.1.0.0.0.0.w.0.0.8.8.,.9.9.8.9.8.9.9.9.8.8.8.8.8.9.9.9.0.0.0.0.1.1.1.1.%.) i i } -.i.d.a.y.a.0...h r # % 0 u ",
"u u u w 9 = = = b ;.y.y.a.y.8.%.) a t ) 1.0.0.y.p.w.w.w.a.a.a.y.w.y.w.w.y.y.w.t.p.a.a.y.y.y.t.t.w.p.w.y.p.p.0.0.=.} i i } -.w.p.y.y.a.0...h r # & 0 0 ",
"u u w w 0 = @ = n ;.d.y.h.a.1.%.) i i ` ,.0.y.p.w.a.y.p.w.y.w.y.y.w.p.y.w.a.y.a.p.a.a.a.t.t.t.t.p.w.w.a.p.p.p.1.,.` t i ` ,.1.d.i.y.a.0. .h - # & 0 u ",
"u w d w 0 = $ = m ;.y.y.d.a.1.%.) a t ` ,.0.p.p.y.y.y.w.p.y.p.y.y.y.w.y.y.y.a.y.h.l.a.y.t.t.t.t.w.a.a.w.p.d.y.0.,.` i a } ,.i.h.y.y.d.0...k r @ % 0 0 ",
"w u w w 9 = @ - n ;.p.y.y.y.0.%.` i i ` 1.0.w.a.w.a.w.y.y.y.w.p.y.y.p.y.y.w.k.h.l.l.a.a.t.t.t.a.a.p.p.a.p.y.y.0.&.` t i } ,.0.a.y.y.k.9.X.k y $ % 0 0 ",
"w w w 0 = @ $ - b ,.y.y.a.p.1.%.m a t ` 1.0.p.p.y.y.a.y.a.w.y.y.w.p.w.y.y.w.y.l.l.h.h.h.t.t.t.w.a.p.p.p.p.h.y.0.=.} i a } ,.w.p.y.y.y.9.X.k r $ % : 0 ",
"9 9 w 9 = @ O 0 M ,.d.y.a.p.1.%.` a i m ,.w.a.a.y.a.y.p.y.y.y.w.p.y.y.w.y.w.w.a.k.y.k.y.a.y.t.t.p.p.h.h.p.p.p.0.=.` t a } ,.p.d.t.g.t.9. .c r # O 0 9 ",
"9 9 9 9 @ O @ = M ,.y.y.y.y.1.%.` a i ] ,.w.w.w.p.w.p.p.y.y.y.y.w.y.a.a.a.y.a.a.k.k.y.y.w.y.u.u.h.p.h.p.p.p.y.0.;.` i a } ,.p.p.t.g.t.9. .c r + O & 9 ",
"9 9 w 9 @ @ $ - M ,.y.y.y.a.8.%.m a i m ,.w.y.a.0.i.p.p.p.p.y.h.p.w.w.w.u.u.a.l.k.k.h.y.y.t.u.t.p.h.h.h.p.h.p.0.=.` i a | 1.0.p.t.t.a.8.X.b r # O @ 9 ",
"w w w w = @ = t ) 1.y.y.k.a.9.%.` a i | ,.w.w.w.d.i.i.i.y.h.p.p.a.y.a.y.t.a.a.l.k.k.k.y.a.w.w.a.h.h.h.h.y.h.d.0.;.` t a ..,.p.d.a.y.a.y.O.n r O O , 9 ",
"w d u w w 9 @ t ) 1.a.y.y.a.9.*.` a i ` ,.w.0.p.d.p.y.y.p.p.h.y.t.a.a.w.t.t.y.l.l.h.l.y.p.h.w.h.y.h.h.h.p.h.p.0.*.) i h ..,.p.p.a.y.l.9.X.x t # @ 0 w ",
"d w w w w 9 = t ) ,.y.y.a.w.1.*.m a i ` ,.w.y.y.y.y.y.p.p.p.p.h.t.w.t.y.t.t.u.l.l.l.l.k.p.w.p.p.p.h.h.p.p.h.p.0.*.) i i } 1.p.p.y.w.y.8.X.c r $ + 0 w ",
"w u l w 9 = = t M ,.a.y.a.a.1.@.] a a ] ,.w.w.p.y.y.y.p.d.h.a.p.w.a.y.y.y.a.k.k.l.l.d.y.p.p.w.h.h.p.p.h.p.p.p.0.=.) i i ..1.w.d.y.y.d.w.O.c y $ % 0 w ",
"u u w w 0 = @ q ) 1.a.y.a.a.9.O.m h a } 1.w.d.a.y.y.y.p.a.a.a.p.t.t.y.y.a.y.a.k.l.l.a.y.d.w.p.h.p.h.p.p.p.p.y.0.*.) t h ..1.y.y.y.y.d.w.X.h r % & 0 w ",
"u u d q 0 & & t ) 1.y.t.a.d.8...m a h } 1.w.w.h.i.i.l.p.p.h.w.h.w.a.a.a.a.a.a.a.k.k.k.t.t.t.u.u.u.u.u.u.a.a.t.1.%.M t a X.9.a.a.u.w.a.9. .j t # & 0 y ",
"d u u q 0 r & t ) >.a.t.a.a.,...m a b ..1.w.h.w.l.i.i.p.p.h.h.a.t.t.w.y.a.k.y.k.a.k.u.k.g.u.u.d.u.u.u.u.a.a.y.1.*.) i a O.9.a.y.u.t.y.8.| a & & & 0 q ",
"w d u u 0 & * t ) 1.a.t.a.y.8. .m b b | 1.p.h.h.d.d.l.p.p.h.d.h.u.a.t.k.y.h.a.k.y.a.d.w.t.g.s.d.t.d.u.u.y.a.y.8.%.M i a ..0.y.y.u.u.a.8.| i & & & 0 y ",
"d w u u 0 , & t ) ,.y.y.a.a.>.| v b b ..1.h.w.h.a.a.p.p.l.p.l.p.a.t.a.a.h.h.a.y.a.3.3.3.4.f.f.3.3.d.d.u.a.a.a.8.%.M i a O.0.y.y.t.a.y.8.} i & & & 0 0 ",
"w u u w 0 & & r ) 8.d.y.p.p.>. .v v v } 1.a.w.w.h.a.h.h.p.p.p.p.h.h.a.h.h.h.y.d.3.2.N.N.G.G.G.A.S.4.y.y.y.y.y.8.*.M t a ..0.y.a.y.y.a.8.} i & $ & 0 y ",
"w u w d 0 & & t ) ,.a.y.p.p.8.| v h v ..1.i.a.h.i.a.h.h.h.h.p.h.h.h.a.h.h.h.y.5.2.N.M.M.L.L.Y.B.G.S.3.d.y.k.a.8.*.M i g O.0.y.a.a.y.y.9.} i * & & 0 q ",
"w w w w 0 @ & r ) 8.u.u.y.a.,. .v v v } 1.d.0.h.p.p.y.p.h.d.h.h.h.h.h.h.h.a.y.1.2.N.M.L.c.v.v.W.T.A.s.d.y.y.a.8.%.M i i O.9.y.y.y.y.d.1.} t * % & 0 q ",
"l w l w r & & y ) 8.u.u.y.y.8...v a v X.1.w.p.p.h.h.h.p.h.h.h.h.a.a.h.h.h.d.y.d.2.N.M.L.v.n.m.v.L.A.4.d.y.a.w.8.*.M t h  .9.t.a.y.y.y.1.} i & # & 0 q ",
"w w u w w 0 * w ) 8.a.u.u.u.8...m v v } 1.0.y.p.p.a.a.a.h.h.h.h.y.y.p.h.y.y.y.d.2.Z.V.z.c.m.m.b.Q.G.3.d.p.p.p.1.%.M i a ..0.y.y.u.t.t.9.} i & & @ 0 w ",
"u u u w 9 9 = w ' 8.a.u.u.u.,. .m i v } 0.y.p.p.a.a.a.y.a.h.h.h.h.d.p.d.y.d.a.d.3.2.N.B.W.v.b.!.Q.G.3.w.p.l.p.1.*.) t a ..0.p.a.u.t.t.9.} i * & & 0 0 ",
"u w u w = $ = w ' 8.y.y.a.t.>. .m h m ..1.y.p.p.a.y.y.y.h.h.d.h.6.d.6.6.d.6.3.5.2.A.V.U.E.W.W.!.Q.V.4.6.i.l.p.1.*.M i a ..0.p.p.u.u.t.w. .i , % % 0 0 ",
"u l u w 9 @ = t ' 9.a.y.t.a.7. .m h a ..0.p.p.p.h.a.a.k.h.h.d.6.6.6.6.F.S.Z.Z.Z.N.M.U.U.U.T.R.E.Q.V.6.d.i.i.p.1.%.n i a O.0.p.p.u.u.u.8.} j 0 # % r w ",
"u w u w = @ & i } 0.l.y.y.y.1. .m h v ..0.p.p.d.a.a.k.d.h.3.5.4.F.D.V.V.C.H.V.C.P.L.L.P.C.H.V.R.T.A.4.d.d.h.y.1.*.m i a ..0.p.p.a.t.t.t. .a = # % 0 u ",
"u d w w = @ = p ` 0.a.a.y.y.,. .) a k O.0.p.a.a.y.a.a.a.d.5.4.Z.C.U.R.R.Y.E.I.I.x.I.K.V.A.Z.A.G.G.F.5.d.p.l.p.1.O.b t h O.0.y.p.y.y.u.9.| a = # % 0 0 ",
"u u u w 9 % = i ` 0.a.y.a.y.,...m v b ..0.h.p.p.a.y.d.d.d.4.S.H.T.Q.Q.Q.Q.E.W.v.c.I.P.D.4.4.4.F.Z.6.3.0.l.p.p.1.O.m i i O.0.y.y.y.y.d.9. .i = @ % 0 u ",
"w w u w & % = a | 0.a.y.p.p.1...b h b X.y.p.y.h.a.d.h.p.3.S.H.T.R.R.J.H.H.H.T.E.I.x.P.Z.3.3.s.3.3.d.3.p.p.p.p.1.O.m i h O.w.y.y.y.y.d.9.} a = $ % 0 0 ",
"w w w w @ O r a | 0.a.t.t.t.:. .n j v %.5.w.d.l.p.p.p.d.4.A.T.R.J.J.D.F.F.F.D.C.U.x.U.Z.6.d.l.i.p.d.y.y.p.h.h.;.+.m t v ..w.p.y.t.y.y.8.| a & % % 0 0 ",
"w 9 9 9 @ O & a  .0.k.y.k.t.:.} n j v X.1.y.p.p.p.l.d.d.2.V.T.R.J.D.F.f.d.6.F.D.B.R.T.A.6.d.i.i.y.y.p.y.p.d.d.1...v t v ..i.p.w.y.y.y.8.| a * O + @ : ",
"9 9 9 9 O O r h | w.k.a.t.t.<.} v j n +.y.p.p.l.h.d.d.6.Z.C.R.R.H.F.f.f.h.d.5.3.V.R.U.A.6.d.l.i.h.h.p.h.i.h.w.,...v i a %.y.p.p.y.y.a.9.| a & O O @ 0 ",
": : : : O O & h | y.a.y.g.d.:.} b b n +.0.p.p.p.h.l.d.6.A.C.R.R.D.F.f.f.h.d.5.3.D.U.U.D.6.d.i.p.h.p.p.y.i.p.w.-.X.m t v %.0.p.p.y.y.a.8...a * O O @ , ",
": : : : + o 0 g [ 1.t.t.t.a.<.} v a m +.0.h.p.h.h.h.d.6.D.U.R.Y.J.F.F.d.h.d.f.4.N.U.B.A.6.l.p.p.h.p.p.p.h.h.p.-.} v i b %.0.p.p.y.y.y.9.| h * # O @ 0 ",
"3 3 e e 3 2 e f [ O.:.t.t.y.>.' v v m %.p.p.h.h.p.h.d.6.A.C.x.R.J.D.F.F.5.4.6.2.V.T.B.F.6.d.l.d.h.p.h.p.y.h.p.,.X.b t h +.0.a.y.y.y.a.8...h * # + 9 0 ",
"B V Z Z Z B Z A G G O.9.g.t.:.` v a n %.1.h.p.h.p.p.p.d.4.V.R.x.T.V.D.F.F.F.A.V.B.B.C.S.5.p.h.h.h.h.y.y.p.h.p.,.| v i h *.y.d.p.y.y.a.9...h * $ @ 0 w ",
"H Z Z V 5 5 5 Z C G [ $.<.t.>.} b j m ..p.w.p.h.p.l.l.d.6.A.U.Y.Y.B.H.N.N.N.V.U.U.B.G.6.d.d.h.h.h.p.p.h.h.h.p.=...v i b O.w.y.y.a.a.a.9.| h , $ # 0 w ",
"K K B 2 > ; < 5 V C ! O.1.y.:.) h h v +.0.p.h.h.h.h.a.a.3.6.N.U.z.z.M.M.B.M.z.z.R.V.A.6.d.h.p.h.a.a.p.p.a.h.w.,...b i h %.w.d.y.a.w.y.9.| j , $ @ 0 w ",
"T H 8 ; o X ; 4 5 C G o.:.y.:.' b h m X.0.p.p.h.h.a.p.d.p.5.Z.V.B.U.z.M.M.M.U.Y.C.D.4.d.h.h.h.h.a.a.p.i.a.a.p.,...b a a %.p.y.y.y.w.a.8.| h * # % 0 u ",
"H B 8 < X . o 4 N J I [ $.9.>.) v a b ..p.d.p.a.h.h.d.p.p.d.6.4.Z.G.V.H.C.V.V.N.F.6.6.l.h.p.h.h.a.a.y.i.p.h.p.,...v i m *.a.y.y.a.y.a.8. .h * % % q w ",
"B B 4 ; o . o 4 V K U ' +.w.:.' h h v %.0.h.d.a.h.h.p.p.p.p.d.d.6.2.Z.D.D.D.Z.6.f.d.p.p.h.h.h.h.h.a.y.d.h.h.p.,...v t a O.w.d.0.y.a.y.8...h r O % 0 u ",
"7 1 1 + X . < V H P ~ [ +.w.=.) h h m +.p.h.h.h.a.h.p.p.d.p.d.d.d.d.d.6.3.6.5.d.p.p.l.l.y.d.h.h.h.a.d.y.y.h.p.1.| b t h O.y.y.y.y.y.y.8. .h = # % 0 u ",
"1 , 1 + o o 5 H P P ~ { $.y.:.) h h m &.0.h.p.h.a.p.p.p.d.p.p.p.p.p.p.p.y.y.y.y.h.p.p.p.p.h.h.h.h.y.a.y.h.h.h.1...b t h O.y.y.w.y.y.y.8. .a - O @ y u ",
"u 0 , % > 3 H R R L ! O.=.y.:.M h h b %.p.d.h.h.y.p.p.p.i.i.i.i.l.p.p.p.p.a.p.p.l.p.h.p.p.h.a.a.h.h.a.p.p.a.p.,...b t i ..w.y.y.y.y.d.9. .a = $ % q w ",
"u y , > 3 Z T ^ R D G O.1.d.>.M h h v %.a.a.d.p.y.d.p.p.i.i.i.i.l.i.p.p.p.a.a.d.p.l.d.p.p.p.h.h.h.a.w.a.a.a.y.,...v t i ..0.y.y.y.y.y.1. .a = $ % 0 u ",
"q 0 , 1 V T ^ ^ P S ) *.w.d.=.) h h b @.y.h.h.h.p.h.w.y.y.y.p.p.p.p.p.y.p.p.p.a.a.y.p.a.y.a.a.a.a.a.y.p.p.a.a.,.} v r i | 1.w.p.p.i.p.0...h r # % q w ",
"0 0 , 3 K ^ / E A f F +.1.y.=.) k h M O.y.h.p.h.h.p.y.y.w.p.h.h.p.p.y.y.y.y.p.p.a.a.y.y.y.y.y.a.k.a.y.y.p.a.w.8...v * i ..1.p.p.p.p.p.p...h r # $ q w ",
", , 3 V E ( W K V s l | =.9.=.' k a b O.0.h.a.a.y.h.y.y.p.h.p.h.p.y.w.y.y.y.y.p.w.a.a.y.y.k.a.a.y.p.y.y.h.h.a.8...v * i } 0.p.p.p.y.p.0.X.j r # @ 0 w ",
"& 1 8 K ^ ~.E B 5 3 s F O.8.=.' k h b O.p.a.a.a.p.p.y.y.p.p.h.h.i.y.y.y.y.y.y.w.a.y.y.y.t.a.y.y.y.y.y.y.h.h.a.,...v r t | 1.p.p.d.p.d.0.X.b r # $ q w ",
"+ 1 V T ( ~.T 8 < < s F o.8.:.' h a k X.y.h.a.y.h.w.h.w.p.h.h.h.p.p.p.y.i.w.w.0.9.w.a.9.w.1.9.y.p.p.d.a.h.a.h.8.X.v - t } 1.w.w.y.y.y.y.X.v - # % q u ",
"+ 1 A E ~.~.T 4 > > y z O.1.=.' k a k X.y.h.y.a.w.h.w.h.h.h.h.h.p.p.a.i.0.,.%.=.=.1.=.%.*.@.=.1.0.0.y.y.a.d.y.1.} b * p | 1.w.p.y.y.y.0.%.v r # @ 0 u ",
"o 1 A W ^.^.T 8 1 y g [ @.9.:.} k a h ..0.y.y.y.h.w.h.p.h.h.h.h.a.p.p.=.| ] b v ) } } ' ) Q ) { O.%.*.;.;.*.%...m a * t } 1.p.p.y.y.d.0.X.v t $ % q w ",
"o 1 Z ^ ^.^.R B s a M O.8.w.:.] k i h X.1.y.y.y.w.h.p.p.h.h.h.p.a.w.8.O.b t * 6 y i d y y y s h v b ) ) ' m b b b t $ t } ,.p.p.y.y.d.p.X.b r # & w w ",
"X 1 V E ~./.W J f h M O.=.=.O.M h i h ..1.0.y.d.h.h.h.h.h.h.w.p.a.0.%.Q g 6 < 7 6 6 6 7 8 8 8 f f g g l l g d y r * # * ] 1.0.p.w.w.a.w...b r $ # 0 d ",
". > V R /././ Y D h b }  . .) k i t h } 1.y.0.p.w.h.h.h.h.h.h.p.p.0.| v s 7 B H B 6 4 J Y T P L Z 7 1 3 3 3 7 1 o o X r ) ,.0.a.y.w.y.0...b r # % 0 y ",
"O > V T ( /.( R D d j ) } ) b a i t v ] ;.0.p.p.h.h.h.h.p.l.p.p.p.1.` l 7 8 J P B 4 4 K E ^ E P Z 4 < < 2 2 2 < o . X * ' ,.0.y.w.w.w.0...b t + + 0 q "
};
