/* XPM */
static char *a5846d380c8b4bd9d6122e7227daf124oQqGp9zwtyB5Miv8[] = {
/* columns rows colors chars-per-pixel */
"64 75 128 2 ",
"   c None",
".  c #050201",
"X  c #0B0501",
"o  c #0E0A03",
"O  c #120402",
"+  c #1A0502",
"@  c #120902",
"#  c #1C0B04",
"$  c #240603",
"%  c #2B0604",
"&  c #250D05",
"*  c #2F0905",
"=  c #340805",
"-  c #3C0A06",
";  c #2E1006",
":  c #341106",
">  c #341208",
",  c #3B1408",
"<  c #430B07",
"1  c #490C07",
"2  c #430C08",
"3  c #4A0D08",
"4  c #540F0A",
"5  c #5D0F0A",
"6  c #43160A",
"7  c #4F1B0C",
"8  c #57110B",
"9  c #5D110B",
"0  c #501B0C",
"q  c #5A1E0E",
"w  c #63110B",
"e  c #6C130C",
"r  c #611E0E",
"t  c #6B1D0F",
"y  c #76160E",
"u  c #7E170F",
"i  c #7C1910",
"p  c #5F200F",
"a  c #672210",
"s  c #6A2310",
"d  c #6B2D12",
"f  c #742611",
"g  c #7A2512",
"h  c #762812",
"j  c #7E2913",
"k  c #673212",
"l  c #6B3413",
"z  c #6F3914",
"x  c #733D16",
"c  c #654416",
"v  c #6B4B19",
"b  c #7C551C",
"n  c #745D1D",
"m  c #7B651F",
"M  c #831A12",
"N  c #8B1B12",
"B  c #951E14",
"V  c #9B1F14",
"C  c #832413",
"Z  c #8A2513",
"A  c #852B15",
"S  c #8A2B16",
"D  c #932215",
"F  c #9C2316",
"G  c #9C2F19",
"H  c #833115",
"J  c #903017",
"K  c #9B3319",
"L  c #A52116",
"P  c #A92217",
"I  c #A62418",
"U  c #AD2418",
"Y  c #B22519",
"T  c #BB271A",
"R  c #BD281B",
"E  c #A1341A",
"W  c #B5371D",
"Q  c #B9331D",
"!  c #B43C1E",
"~  c #C52A1C",
"^  c #CD2C1E",
"/  c #D32D1F",
"(  c #D62E20",
")  c #D92F20",
"_  c #CC3821",
"`  c #D43621",
"'  c #DC3221",
"]  c #E63323",
"[  c #E93423",
"{  c #E53B25",
"}  c #804919",
"|  c #886821",
" . c #8E7425",
".. c #947D28",
"X. c #C54222",
"o. c #CB4423",
"O. c #D44624",
"+. c #DC4926",
"@. c #DD4A26",
"#. c #DF4A26",
"$. c #D94925",
"%. c #E04024",
"&. c #E34025",
"*. c #E04225",
"=. c #E34126",
"-. c #E34326",
";. c #E54226",
":. c #E24526",
">. c #E34626",
",. c #E04926",
"<. c #E34827",
"1. c #E14B27",
"2. c #E24B27",
"3. c #E34B27",
"4. c #E44927",
"5. c #E34C27",
"6. c #A18B2C",
"7. c #B09631",
"8. c #B09831",
"9. c #B29932",
"0. c #B69C33",
"q. c #BA9E34",
"w. c #BDA335",
"e. c #C3A737",
"r. c #DBBC3F",
"t. c #DFBF40",
"y. c #E8C642",
"u. c #F8D247",
/* pixels */
"                                                                                                                                ",
"                                                                                                                                ",
"                                                                                                                                ",
"                                                                                                                                ",
"                                                                                                                                ",
"                                                                                                                                ",
"                                                                                                                                ",
"                                                                                                                                ",
"                                                                                                                                ",
"                                                                                                                                ",
"                                                                                                                                ",
"                                                                                                                                ",
"                                                                                                                                ",
"                                                                                                                                ",
"                                                                                                                                ",
"                                                                                                                                ",
"                                                                                                                                ",
"                                                                                                                                ",
"                                                                                                                                ",
"                                                                                                                                ",
"                                                              X o                                                               ",
"                                                  o           X . o                                                             ",
"                                                o @ o           O #                                                             ",
"                                                  o @           > f @                                                           ",
"                                                    #           , X.7                                                           ",
"                                                    @ .         p @.E #     o                                                   ",
"                                                    @ # @     @ A 5.o.6     . o                                                 ",
"                                            .       @ f ,     & ! 5.@.a     X o                                                 ",
"                                          . . o     & ! S # # q $.,.5.J @                                                       ",
"                                          o : #     q $.o., & ! { ] ;.! &   .                                                   ",
"                                          @ h > @ ; ! +.,.E K *.] [ { o., o + @                                                 ",
"                                          & ! f X A { ] { ;.,.[ ] ] { +.0 O j :                                                 ",
"                                          6 O.o.S _ [ ] ] { ;.[ [ ] { 5.a a O.p                                                 ",
"                                          s +.4.5.{ ] ] [ ] ] ] [ ] { ,.X.O.2.J @                                               ",
"                                          A { -.,.{ ] [ ] ] ] ] ] ] ] ;.{ { { Q ;                                               ",
"                                        @ S [ { *.{ / / ] ] ] ] ] [ [ [ [ ] ] ' 6                                               ",
"                                        @ S [ { _ t z b H T ] ] ] ( T T ) ] ] ] a o                                             ",
"                                        o C [ [ F m r.y.0.d ( [ ( h v c g ' [ { Z @                                             ",
"                                          g [ ] Z q.u.7.8.x / ] Y | 8.w.b T [ [ G @                                             ",
"                                          q { [ B  .t.w.m N ] [ Y c 6...k / [ [ E o                                             ",
"                                          , ` [ ( C k d C / [ ] ] B f Z ~ ] ] [ Q &                                             ",
"                                          & R [ [ ] / / ] ] ] ] ] ] ' ] ] ] ] [ Y #                                             ",
"                                          X N ] ] ] ] ] ] ] ] [ ] ] ] ] ] ] ] ] N @                                             ",
"                                            5 ' ] ] ] ^ ~ ] [ [ [ ] ] ] ] ] ] ' 8                                               ",
"                                            % T [ ] ] Y 4 M T ^ / ( ] ] ] ] ] B +                                               ",
"                                            . 9 ' ] ] ] Y 4 * - - y ] ] ] ] T *                                                 ",
"                                              o M ] ] ] ] ( Y L P ^ ] ] ] ~ 2 X                                                 ",
"                                                + u ^ ] ] ] [ [ ] [ ] ) Y 3 X                                                   ",
"                                                  O % 9 B ~ ~ ~ T V y 1 + @                                                     ",
"                                                    O = = - - - = * - - O                                                       ",
"                                                  . 2 N M V V V L B y N 3 X                                                     ",
"                                                  X w 1 1 T T T R V % 3 y + o                                                   ",
"                                                  $ y $ - U T ~ R P < O e 3 .                                                   ",
"                                                X = 5 X < Y T T R P 1 . - w X                                                   ",
"                                                X O + . - Y T T T U 3 . X O o                                                   ",
"                                                      X - Y V 5 N Y 3 O                                                         ",
"                                                        < U u O 9 Y 3 O                                                         ",
"                                                        - P e . 1 L - X                                                         ",
"                                                        - V 5 . * V - X                                                         ",
"                                                        % e = . O 5 % .                                                         ",
"                                                        X X X O X X .                                                           ",
"                                                                                                                                ",
"                                                                                                                                ",
"                                                                                                                                ",
"                                                                                                                                ",
"                                                                                                                                ",
"                                                                                                                                ",
"                                                                                                                                ",
"                                                                                                                                ",
"                                                                                                                                ",
"                                                                                                                                ",
"                                                                                                                                ",
"                                                                                                                                ",
"                                                                                                                                ",
"                                                                                                                                "
};
